<?xml version="1.0" encoding="utf-8"?>
<!-- Generator: Adobe Illustrator 16.0.0, SVG Export Plug-In . SVG Version: 6.00 Build 0)  -->
<!DOCTYPE svg PUBLIC "-//W3C//DTD SVG 1.1//EN" "http://www.w3.org/Graphics/SVG/1.1/DTD/svg11.dtd">
<svg version="1.1" id="Capa_1" xmlns="http://www.w3.org/2000/svg" xmlns:xlink="http://www.w3.org/1999/xlink" x="0px" y="0px"
	 width="134px" height="62px" viewBox="0 0 134 62" enable-background="new 0 0 134 62" xml:space="preserve">
<g>
	<path fill-rule="evenodd" clip-rule="evenodd" fill="#FFFFFF" d="M87.5,46.391c0-0.084-0.015-0.163-0.045-0.236
		c-0.028-0.073-0.072-0.139-0.128-0.195c-0.059-0.058-0.125-0.102-0.2-0.133c-0.074-0.031-0.153-0.045-0.236-0.045
		c-0.081,0-0.157,0.014-0.23,0.043s-0.138,0.074-0.194,0.131c-0.059,0.061-0.105,0.129-0.136,0.201
		c-0.032,0.074-0.048,0.152-0.048,0.232s0.016,0.156,0.047,0.23c0.031,0.072,0.075,0.139,0.133,0.197
		c0.059,0.059,0.124,0.103,0.197,0.133c0.074,0.03,0.151,0.046,0.231,0.046c0.081,0,0.159-0.016,0.233-0.046
		c0.076-0.033,0.143-0.076,0.203-0.135c0.057-0.056,0.1-0.119,0.129-0.191C87.485,46.552,87.5,46.475,87.5,46.391L87.5,46.391z"/>
	<path fill-rule="evenodd" clip-rule="evenodd" fill="#212121" d="M86.89,45.704c0.095,0,0.184,0.018,0.267,0.051
		c0.083,0.035,0.156,0.084,0.221,0.15c0.063,0.063,0.112,0.137,0.146,0.221c0.033,0.082,0.051,0.169,0.051,0.263
		c0,0.093-0.018,0.18-0.051,0.262c-0.033,0.081-0.082,0.155-0.146,0.218c-0.066,0.066-0.142,0.116-0.226,0.15
		c-0.085,0.037-0.171,0.053-0.262,0.053c-0.092,0-0.179-0.016-0.261-0.05c-0.083-0.035-0.156-0.085-0.221-0.151
		c-0.066-0.064-0.115-0.139-0.15-0.221c-0.033-0.083-0.051-0.17-0.051-0.261s0.018-0.177,0.053-0.261s0.086-0.16,0.151-0.227
		c0.063-0.063,0.136-0.111,0.218-0.146C86.71,45.721,86.797,45.704,86.89,45.704L86.89,45.704z M87.5,46.391
		c0-0.084-0.015-0.163-0.045-0.236c-0.028-0.073-0.072-0.139-0.128-0.195c-0.059-0.058-0.125-0.102-0.2-0.133
		c-0.074-0.031-0.153-0.045-0.236-0.045c-0.081,0-0.157,0.014-0.23,0.043s-0.138,0.074-0.194,0.131
		c-0.059,0.061-0.105,0.129-0.136,0.201c-0.032,0.074-0.048,0.152-0.048,0.232s0.016,0.156,0.047,0.23
		c0.031,0.072,0.075,0.139,0.133,0.197c0.059,0.059,0.124,0.103,0.197,0.133c0.074,0.03,0.151,0.046,0.231,0.046
		c0.081,0,0.159-0.016,0.233-0.046c0.076-0.033,0.143-0.076,0.203-0.135c0.057-0.056,0.1-0.119,0.129-0.191
		C87.485,46.552,87.5,46.475,87.5,46.391L87.5,46.391z M86.911,45.983c0.11,0,0.193,0.018,0.246,0.053s0.079,0.09,0.079,0.164
		c0,0.057-0.017,0.103-0.05,0.141c-0.033,0.036-0.079,0.06-0.136,0.066l0.176,0.365H87.09l-0.166-0.348h-0.184v0.348h-0.119v-0.789
		H86.911L86.911,45.983z M86.888,46.063h-0.147v0.283h0.147c0.083,0,0.142-0.01,0.175-0.031s0.051-0.057,0.051-0.105
		c0-0.053-0.018-0.09-0.053-0.112S86.967,46.063,86.888,46.063L86.888,46.063z"/>
	<path fill-rule="evenodd" clip-rule="evenodd" fill="#212121" d="M36.846,32.797c0,0-4.936-0.911-5.098,0.542
		c-0.668,2.08-1.04,5.496-1.188,6.089c-0.148,0.594-0.965,4.975-0.965,4.975s-0.123,1.578,1.363,1.578
		c1.487,0,3.814,0.154,4.111-0.244c0.297-0.395,0.644-0.881,0.644-0.881c0.397-0.197,1.071,1.031,1.18,1.15
		c0.347,0,3.499,0.127,4.387-0.061c0.496-0.693,0.774-1,0.774-1c0.252-0.442,1.086,0.841,1.299,0.988
		c0.297,0,5.742,0.028,5.742,0.028s0.536-0.093,0.412,0.447c-0.125,0.541-1.852,9.073-1.852,9.073s-0.425,1.841,1.37,1.889
		c1.795,0.048,5.903,0,5.903,0s1.605,0.142,1.936-1.321c1.142-0.086,1.722-0.05,2.761,0c0,0,1.571,1.478,3.998,1.407
		c2.426-0.069,4.454-1.473,4.368-1.299c0,0,0.467,0.493,1.783,0.563c1.352,0.109,2.66,0.049,3.105-0.188
		c0.416-0.209,0.91-0.981,0.91-1.814c0-0.54,0.072-1.233,0.181-1.561c0.583-0.063,1.772,3.406,4.534,3.557
		c2.849,0.09,4.997-0.158,5.721-1.38c0.317-0.946,0.081-2.671-0.313-3.599c0,0,2.785-3.014,0.398-6.209
		c1.638-0.164,2.031-0.824,2.031-0.824c0.062,0.115,0.123,0.231,0.185,0.347c1.312,0,2.815,0.021,4.128,0.021
		c0-0.256,0-0.569,0-0.823c0.127,0,0.254,0,0.383,0c3.625,2.858,7.355,1.947,8.995,1.036c0.815-0.469,3.194-1.979,3.9-3.996
		c0.856-2.447,1.321-5.313-1.126-7.578c-2.448-2.263-7.189-1.751-8.229-0.957c-1.012,0.509-1.675,0.982-1.675,0.982
		s0.367-2.333,0.245-2.884c-0.123-0.549-0.307-1.223-1.959-1.223c-1.651,0-3.041-0.123-3.408,0.856s-0.551,2.823-0.551,2.823
		s-2.902-0.222-4.105,1.179c-0.961-1.826-2.781-1.853-4.877-1.872c-1.957,0.118-3.975,0.523-5.24,1.72
		c-1.057-0.679-1.766-0.677-3.376-0.677s-3.138,0.657-3.138,0.657s0.112-1.649-1.303-1.938c-1.416-0.291-1.987,0.274-2.394,0.455
		c-0.407,0.182-1.278-0.412-2.589-0.367c-1.311,0.045-1.671,0.755-2.104,1.102c0,0-1.667-1.113-3.881-0.998
		c-2.214,0.113-3.515,1.128-4.338,1.975c-0.667,0.688-0.979-2.213-3.713-2.277c-2.735-0.064-3.264,0.697-3.923,0.975
		c0,0-1.437-1.037-2.997-0.973C37.691,32.332,36.846,32.797,36.846,32.797L36.846,32.797z"/>
	<path fill-rule="evenodd" clip-rule="evenodd" fill="#212121" d="M68.069,4.846c12.458,0,22.561,5.516,22.561,12.317
		c0,6.803-10.103,12.317-22.561,12.317c-12.459,0-22.562-5.515-22.562-12.317C45.507,10.362,55.61,4.846,68.069,4.846L68.069,4.846z
		"/>
	<path fill-rule="evenodd" clip-rule="evenodd" fill="#E9E9EA" d="M67.859,5.849c11.549,0,20.915,4.808,20.915,10.734
		c0,3.357-2.667,5.743-6.854,7.961c-0.196,0.103-0.377,0.146-0.51,0.206c-0.297,0.131-0.4-0.052-0.194-0.188
		c1.599-1.061,2.884-2.288,3.879-3.406c1.662-1.871,1.454-5.195,1.454-5.195L85.043,16c-0.268,0.008-3.692,0.521-4.627,0.892
		c-0.701,0.079-3.027,0.919-4.113,1.426c-0.441,0.206-0.576,0.191-0.829-0.133c-0.112-0.144-0.225-0.288-0.337-0.433
		c-0.576-0.46-1.154-0.923-1.73-1.385c-1.039-0.86-2.079-1.719-3.117-2.578c-0.498-0.336-0.984-0.57-1.688-0.802
		c-1.002-0.169-2.533,0.313-2.36,0.417c0.223-0.262,2.463-0.258,2.624,0c2.237,1.637,4.459,3.322,6.503,5.542
		c0.343,0.368,0.235,0.856-0.063,1.203c-0.289,0.335-0.926,0.2-1.515-0.24c-0.308-0.232-3.437-2.439-3.437-2.439
		c0.58,0.999,1.846,1.864,2.578,2.502c0.522,0.356,0.91,1.231,0.412,1.723c-0.389,0.386-1.205,0.117-1.571-0.182
		c-0.69-0.405-1.297-1.063-2.105-1.358c0,0,1.16,1.139,1.468,1.409c0.309,0.27,0.445,0.862,0.291,1.132
		c-0.153,0.269-0.521,0.407-0.791,0.407c-0.738,0-0.904-0.577-1.5-0.924c0.197,0.461,0.73,0.714,0.576,1.192
		c0,0.308-1.279,0.526-1.719,0.28c-0.492-0.41,0.611-1.835-1.589-2.464c-0.066-1.693-1.305-1.757-1.938-1.757
		c0,0-0.382,0.178-0.516-0.173c-0.276-0.486-1.106-0.658-1.67-0.447c-0.499,0.186-0.653,0.575-0.959,0.576
		c-0.151,0-0.181-0.236-0.218-0.398c-0.547-0.895-1.514-0.472-1.91-0.522c-0.397-0.049-2.524-1.014-3.466-1.311
		c-0.941-0.298-4.211-1.14-4.755-1.338c-0.591-0.214-1.403-0.461-1.526-0.178c-0.104,0.511-0.765,4.762,4.918,8.756
		c0.517,0.376,0.622,0.64-0.249,0.276c-4.393-1.968-7.17-4.862-7.17-8.089C46.944,10.656,56.31,5.849,67.859,5.849L67.859,5.849z
		 M54.622,9.646C63.413,5.194,74.803,6.059,82,10.07c0.053,0.104-3.975,2.474-6.023,2.374c-1.887,0.282-4.406-0.298-5.438-0.8
		c-1.081-0.561-4.289-0.841-5.416-0.054c-1.199,0.64-1.633,1.829-1.633,1.829s-0.155-0.603-0.368-0.65
		c-0.213-0.047-1.579-0.01-2.064-0.045C58.833,12.563,56.474,10.798,54.622,9.646L54.622,9.646z"/>
	<path fill-rule="evenodd" clip-rule="evenodd" fill="#E9E9EA" d="M59.9,18.851c0.469,0,1.191,0.479,1.191,0.928
		s-0.095,0.584-0.563,0.584s-1.191-0.477-1.191-0.927C59.337,18.987,59.432,18.851,59.9,18.851L59.9,18.851z"/>
	<path fill-rule="evenodd" clip-rule="evenodd" fill="#E9E9EA" d="M63.352,19.482c0.17,0.126,0.285,0.313,0.342,0.525
		c0.525-0.266,1.174-0.281,1.563,0.006c0.556,0.413,0.635,1.25,0.136,1.923c-0.5,0.671-1.373,0.969-1.928,0.556
		c-0.273-0.203-0.482-0.529-0.565-0.888c-0.375,0.171-0.796,0.173-1.086-0.042c-0.457-0.339-0.629-1.143-0.219-1.695
		C62.004,19.316,62.896,19.144,63.352,19.482L63.352,19.482z"/>
	<path fill-rule="evenodd" clip-rule="evenodd" fill="#E9E9EA" d="M67.362,23.538c-0.288,0.422-1.162,0.559-1.674,0.211
		c-0.512-0.349-0.696-0.948-0.407-1.37c0.288-0.424,0.981-0.962,1.694-0.537C67.688,22.267,67.651,23.113,67.362,23.538
		L67.362,23.538z"/>
	<path fill-rule="evenodd" clip-rule="evenodd" fill="#E9E9EA" d="M51.471,16.639c0.293-0.349,6.509,1.9,7.364,2.61
		c0.298,0.75,0.454,1.432,1.874,1.386c0.143,0.708,0.631,1.852,2.188,1.671c0.122,0.709,0.725,1.095,1.81,1.161
		c0.495,1.285,2.784,1.314,3.204,0.464c0.886,0.359,1.945,0.584,2.816-0.469c0.534,0.073,1.281-0.126,1.732-0.982
		c1.104-0.01,1.883-0.782,2.056-1.565c1.267,0.037,1.536-0.817,1.867-1.855c3.607-1.928,8.104-2.488,8.104-2.488
		c-0.233,6.246-6.023,10.891-16.99,10.907C56.528,27.495,51.906,22.209,51.471,16.639L51.471,16.639z"/>
	<path fill-rule="evenodd" clip-rule="evenodd" fill="#E9E9EA" d="M58.133,9.275c1.776-1.329,5.17-1.865,9.873-1.904
		c4.703-0.037,7.877,0.884,10.869,2.221c0.633,0.27,0.314,1.062-0.413,1.551c-0.683,0.459-1.464,0.69-1.651,0.732
		c-1.195,0.275-3.349,0-5.023-0.602c-1.272-0.617-2.128-0.789-4.083-0.768c-1.955,0.021-2.787,0.246-4.578,1.494
		C60.68,13.155,56.357,10.605,58.133,9.275L58.133,9.275z"/>
	<path fill-rule="evenodd" clip-rule="evenodd" fill="#E9E9EA" d="M32.893,33.918c0,0,0.086,0.68,0.017,1.094
		c-0.069,0.416-1.872,9.359-1.872,9.359c1.086,0,2.013,0,3.099,0c0.296-1.811,1.266-8.26,3.588-8.202
		c0.674,0.014,1.149,0.593,0.927,2.124c-0.417,2.027-0.753,4.053-1.167,6.078c1.021,0,2.042,0,3.063,0
		c0.318-1.783,1.127-8.467,3.495-8.197c0.616-0.002,1.241,0.518,1.015,2.078c-0.419,2.039-0.757,4.079-1.175,6.119
		c1.034,0,2.067,0,3.1,0c0-0.004,0-0.007,0-0.012c0.63-2.832,1.124-5.625,1.328-8.455c0.018-0.775-0.816-2.144-2.482-2.119
		c-1.344-0.098-2.801,0.469-3.662,1.572c-0.144,0.058-0.22,0.096-0.363,0c-0.546-0.932-1.024-1.598-2.553-1.619
		c-1.631,0.033-2.566,0.725-3.421,1.641c0.007-0.004-0.155,0.064-0.147,0.001c0-0.485-0.018-0.978-0.018-1.462
		C34.741,33.918,33.816,33.918,32.893,33.918L32.893,33.918z M87.803,36.854c0.015,0.008-0.076,2.016-0.795,3.539
		c-0.442,0.938-1.344,2.025-2.311,1.529c-0.967-0.498-0.852-2.246-0.135-3.342C85.278,37.484,86.59,36.69,87.803,36.854
		L87.803,36.854z M78.307,36.148c0.015,0.007-0.076,2.015-0.795,3.54c-0.442,0.938-1.344,2.024-2.311,1.528
		c-0.967-0.497-0.851-2.245-0.135-3.343C75.782,36.777,77.094,35.984,78.307,36.148L78.307,36.148z M89.733,41.02
		c-0.199,1.792-0.109,2.928-0.109,2.928h-2.616v-1.242c-1.526,1.451-3.019,2.161-4.558,1.095s-1.644-4.442,0.094-6.841
		c1.207-1.664,3.35-2.279,5.721-1.971l0.763-3.876h2.73C91,34.29,89.93,39.258,89.733,41.02L89.733,41.02z M80.264,40.265
		c0,0.526,0,2.954,0,2.954h-2.615v-1.241c-1.527,1.45-3.02,2.161-4.559,1.093c-1.539-1.064-1.821-4.58,0.095-6.839
		c1.74-2.052,5.253-2.618,7.68-1.777c0.278,0.096,0.62,0.132,0.547,0.407C80.977,36.502,80.264,38.547,80.264,40.265L80.264,40.265z
		 M59.699,34.003c0,0,0.044,1.011-0.044,1.5s-1.421,7.061-1.421,7.061h2.578c0,0,0.487-3.819,0.887-4.44
		c0.809-1.259,1.125-1.854,2.778-1.963l0.429-2.247c-0.289-0.006-2.24-0.067-3.091,1.515l0.014-1.414L59.699,34.003L59.699,34.003z
		 M98.366,36.061c1.083,0.445,1.558,2.107,0.855,3.817c-0.703,1.71-2.193,2.651-3.275,2.206c-1.084-0.445-1.559-2.15-0.855-3.86
		C95.792,36.514,97.283,35.615,98.366,36.061L98.366,36.061z M97.943,33.418c3.11-0.195,5.548,2.085,5.331,5.461
		c-0.218,3.379-4.107,6.176-7.411,5.916c-3.305-0.26-4.816-2.143-4.583-5.495C91.514,35.948,94.833,33.614,97.943,33.418
		L97.943,33.418z M71.667,35.161l-0.438,2.125c-3.313-0.247-4.404,0.926-4.527,2.851c-0.123,1.924,1.48,2.042,3.615,1.581
		l-0.072,2.09c-5.133,0.963-6.343-0.828-6.343-3.736C64.017,37.165,66.881,34.429,71.667,35.161L71.667,35.161z M51.979,37.902
		c0.447-1.471,2.41-2.654,3.493-1.901c0.934,0.957-0.1,1.654-1.876,1.91C53.056,37.989,52.518,37.915,51.979,37.902L51.979,37.902z
		 M54.396,33.933c1.467,0,4.161,0.646,3.798,3.119c-0.297,0.891-0.429,2.872-6.128,2.659c-0.784,0.064,0.295,2.662,4.756,1.031
		l-0.021,2.049c-0.717,0.32-3.373,0.976-5.209,0.283c-2.468-1.195-2.936-4.754-1.206-6.885
		C51.28,35.088,52.761,33.933,54.396,33.933L54.396,33.933z"/>
	<path fill-rule="evenodd" clip-rule="evenodd" fill="#E9E9EA" d="M68.206,47.062c1.799,1.203,1.576,3.821,0.174,6.378
		c-1.662,2.87-5.676,2.863-6.766,2.297s-1.126-1.613-1.096-3.335c0.462-2.839,1.102-6.025,1.679-8.837l2.677,0.035l-0.83,4.18
		C65.222,46.577,66.967,46.374,68.206,47.062L68.206,47.062z M65.835,48.875c0.747,0.271,1.041,1.541,0.498,3.032
		c-0.542,1.493-1.686,2.319-2.432,2.05c-0.746-0.271-1.073-1.541-0.53-3.033S65.088,48.604,65.835,48.875L65.835,48.875z
		 M70.899,45.971c0,0,0.005,1.592-0.095,2.141s-1.468,7.16-1.468,7.16h2.896c0,0,0.59-4.26,0.996-4.992
		c0.82-1.473,1.23-1.762,3.026-1.819l0.419-2.713c-0.325-0.006-2.338-0.041-3.295,1.736l-0.004-1.503L70.899,45.971L70.899,45.971z
		 M51.212,44.303h2.843l-1.664,9.013h3.121l-0.486,2.703h-5.894L51.212,44.303L51.212,44.303z M59.154,43.594
		c0.85,0,1.54,0.73,1.54,1.633c0,0.9-0.69,1.632-1.54,1.632c-0.85,0-1.539-0.731-1.539-1.632
		C57.615,44.325,58.305,43.594,59.154,43.594L59.154,43.594z M57.342,47.897h2.681l-1.369,6.723h-2.733L57.342,47.897L57.342,47.897
		z M78.171,49.946c0.431-1.468,2.319-2.646,3.362-1.896c0.897,0.953-0.097,1.647-1.807,1.903
		C79.208,50.032,78.69,49.958,78.171,49.946L78.171,49.946z M80.499,45.987c1.411,0,4.004,0.645,3.654,3.111
		c-0.285,0.889-0.413,2.865-5.898,2.653c-0.754,0.063,0.284,2.656,4.578,1.028l-0.02,2.045c-0.69,0.319-3.246,0.973-5.015,0.283
		c-2.374-1.194-2.825-4.743-1.161-6.871C77.499,47.139,78.922,45.987,80.499,45.987L80.499,45.987z"/>
</g>
</svg>
