<?xml version="1.0" encoding="utf-8"?>
<!-- Generator: Adobe Illustrator 16.0.0, SVG Export Plug-In . SVG Version: 6.00 Build 0)  -->
<svg version="1.2" baseProfile="tiny" id="Capa_1" xmlns="http://www.w3.org/2000/svg" xmlns:xlink="http://www.w3.org/1999/xlink"
	 x="0px" y="0px" width="134px" height="62px" viewBox="0 0 134 62" xml:space="preserve">
<rect fill="none" width="134" height="62"/>
<g>
	<path fill="#222222" d="M102.587,21.494c-0.75-2.24-1.16-2.771-3.293-2.771l-5.204-0.006L85.762,45.93h4.244l1.783-5.877h9.902
		l1.797,5.875h7.357L102.587,21.494z M92.984,36.068l3.717-12.412l3.767,12.412H92.984z"/>
	<path fill="#222222" d="M57.611,45.938H46.179V18.711h11.848c5.553,0,7.488,4.531,4.676,8.707l-1.33,1.973
		C70.691,34.227,67.662,45.938,57.611,45.938L57.611,45.938z M56.253,30.691l2.265-3.389c0.577-0.848,0.698-1.379,0.698-1.977
		c0-1.664-1.465-3.063-3.146-3.063h-3.49V42.28h1.936c3.234,0,5.689-1.75,5.689-5.839C60.205,33.066,58.621,31.266,56.253,30.691
		L56.253,30.691z"/>
	<path fill="#222222" d="M34.585,45.938h-11.43V18.711h11.847c5.555,0,7.494,4.531,4.68,8.707l-1.33,1.973
		C47.669,34.227,44.638,45.938,34.585,45.938L34.585,45.938z M33.226,30.691l2.271-3.389c0.574-0.848,0.695-1.379,0.695-1.977
		c0-1.664-1.461-3.063-3.145-3.063h-3.493V42.28h1.933c3.238,0,5.695-1.75,5.695-5.839C37.183,33.066,35.597,31.266,33.226,30.691
		L33.226,30.691z"/>
	<path fill="#222222" d="M84.65,18.711h4.299l-8.295,27.217l-6.531-0.004l-8.898-27.207l4.804-0.006
		c1.857,0,2.349,0.484,3.318,3.564L78.5,39.387L84.65,18.711L84.65,18.711z"/>
</g>
</svg>
