<?xml version="1.0" encoding="utf-8"?>
<!-- Generator: Adobe Illustrator 16.0.0, SVG Export Plug-In . SVG Version: 6.00 Build 0)  -->
<svg version="1.2" baseProfile="tiny" id="Capa_1" xmlns="http://www.w3.org/2000/svg" xmlns:xlink="http://www.w3.org/1999/xlink"
	 x="0px" y="0px" width="134px" height="62px" viewBox="0 0 134 62" xml:space="preserve">
<rect fill="none" width="134" height="62"/>
<g>
	<g>
		<rect x="0.337" y="23.258" fill="#EFEFEF" width="26.043" height="25.959"/>
		<g>
			<path fill="#222222" d="M7.57,34.645h2.17c0.429,0,0.82,0.277,0.82,0.732c0,0.617-0.487,1.045-1.171,1.045H7.067L7.57,34.645z"/>
			<path fill="#222222" d="M18.248,34.652h2.051c0.974,0,1.012,0.665,1.012,0.852c0,0.438-0.388,1.303-1.568,1.303h-2.089
				C17.653,36.807,18.238,34.709,18.248,34.652"/>
			<path fill="#222222" d="M6.542,38.268h1.876c0.921,0,0.972,0.25,1.101,0.466c0.125,0.213,0.066,0.661-0.021,0.813
				c-0.108,0.196-0.296,0.798-1.471,0.798H5.942L6.542,38.268"/>
			<path fill="#222222" d="M26.38,32.721v16.496H0.337V32.721h5.012l-2.776,9.603h5.683c2.463,0,2.892-0.575,3.391-0.992
				c0.668-0.562,1.025-1.894,0.727-2.819c-0.212-0.657-0.833-1.051-0.899-1.074c0.767-0.356,1.214-1.139,1.27-1.252
				c0.287-0.593,0.509-1.67-0.202-2.534c-0.591-0.719-1.735-0.917-2.568-0.931h6.085l-2.786,9.619h2.82l1.03-3.645h1.611
				c1.17,0,1.064,0.727,1.091,1.042l0.093,2.683h2.619c0,0-0.118-3.014-0.129-3.232c-0.034-0.775-0.545-1.124-0.983-1.124
				c0.838-0.226,1.567-0.986,1.858-1.474c0.335-0.564,0.588-1.459,0.256-2.35c-0.482-1.29-1.725-1.504-2.59-1.52H26.38z"/>
		</g>
		<rect x="0.337" y="23.258" fill="#222222" width="26.043" height="6.309"/>
	</g>
	<g>
		<polygon fill="#222222" points="54.279,42.461 46.243,42.461 48.976,32.854 56.82,32.854 56.18,35.08 51.495,35.08 51.099,36.465 
			55.074,36.465 54.437,38.711 50.459,38.711 50.026,40.215 54.918,40.215 		"/>
		<path fill="#222222" d="M42.926,32.854h-4.633l-2.748,9.607h3.161l0.848-2.989h1.59c0.172,0,0.347,0,0.518-0.018
			c2.454-0.157,3.888-1.417,4.442-3.37C46.657,34.113,45.69,32.854,42.926,32.854z M43.099,36.104
			c-0.226,0.777-0.78,1.089-1.437,1.122h-1.468l0.605-2.146h0.897C42.372,35.08,43.34,35.205,43.099,36.104z"/>
		<polygon fill="#222222" points="58.808,32.854 58.099,35.377 60.932,35.377 58.909,42.461 62.055,42.461 64.078,35.377 
			66.913,35.377 67.274,34.113 67.64,32.854 		"/>
		<path fill="#222222" d="M74.172,32.854h-4.527l-2.371,8.343l-0.362,1.265h3.163l0.936-3.354h0.95c0.586,0,0.951,0.07,1.156,0.225
			c0.328,0.244,0.277,0.691,0.053,1.453c-0.017,0.066-0.034,0.121-0.053,0.172c-0.189,0.76-0.277,1.312-0.258,1.504h3.195
			l0.088-0.293c-0.379,0-0.224-0.418,0.139-1.677c0.552-1.937,0-2.177-0.899-2.559c1.21-0.31,1.954-1.243,2.283-2.347
			C78.18,33.716,77.387,32.854,74.172,32.854z M74.607,36.084c-0.175,0.605-0.675,0.867-1.49,0.917h-1.52l0.552-1.921h1.47
			C74.345,35.08,74.794,35.411,74.607,36.084z"/>
		<path fill="#222222" d="M85.631,32.594c-0.484,0-0.968,0.053-1.434,0.154c-2.369,0.52-4.304,2.299-5.03,4.824
			c-0.915,3.279,0.568,5.15,3.578,5.15c0.499,0,0.983-0.057,1.452-0.158c2.28-0.521,4.286-2.249,5.063-4.961
			C89.986,35.066,89.069,32.594,85.631,32.594z M86.096,37.604c-0.345,1.265-0.968,2.266-1.899,2.627
			c-0.243,0.085-0.501,0.139-0.778,0.139c-1.505,0-1.452-1.537-1.089-2.766c0.275-0.982,0.88-2.126,1.868-2.523
			c0.221-0.084,0.466-0.137,0.741-0.137C86.339,34.91,86.478,36.291,86.096,37.604z"/>
		<path fill="#222222" d="M97.485,32.854h-4.613l-2.733,9.607h4.702c0.209,0,0.414,0,0.622-0.018
			c2.178-0.12,3.786-0.898,4.338-2.867c0.292-1.059,0-1.953-0.966-2.212c0.723-0.381,1.571-1.108,1.849-2.091
			C101.217,33.352,99.648,32.854,97.485,32.854z M96.933,39.332c-0.192,0.691-0.759,0.863-1.469,0.883h-1.52l0.501-1.764h1.019
			C96.449,38.451,97.176,38.504,96.933,39.332z M97.574,35.859c-0.155,0.554-0.694,0.83-1.332,0.83h-1.296l0.449-1.609h1.106
			C97.176,35.08,97.779,35.098,97.574,35.859z"/>
		<polygon fill="#222222" points="111.881,42.168 111.691,42.461 111.881,42.461 		"/>
		<path fill="#222222" d="M111.881,33.84c-0.414-0.676-1.469-0.986-3.419-0.986h-4.548l-2.729,9.607h3.145l0.968-3.354h0.95
			c0.587,0,0.951,0.07,1.16,0.225c0.326,0.244,0.275,0.691,0.049,1.453c-0.015,0.066-0.032,0.121-0.049,0.172
			c-0.209,0.76-0.277,1.312-0.26,1.504h3.197l0.068-0.293c-0.362,0-0.207-0.418,0.156-1.677c0.552-1.937,0-2.177-0.899-2.559
			c1.141-0.294,1.884-1.138,2.212-2.159c0.036-0.068,0.051-0.121,0.068-0.188C112.158,34.859,112.158,34.27,111.881,33.84z
			 M108.891,36.084c-0.171,0.605-0.671,0.867-1.483,0.917h-1.52l0.552-1.921h1.469C108.631,35.08,109.083,35.411,108.891,36.084z"/>
		<path fill="#222222" d="M133.623,35.635c0.243-1.675-0.588-3.041-3.249-3.041c-2.419,0-4.478,1.02-5.047,3.075
			c-1.053,3.663,4.771,2.661,4.357,4.131c-0.124,0.452-0.729,0.71-1.507,0.71c-0.31,0-0.621-0.089-0.827-0.243
			c-0.224-0.173-0.346-0.417-0.312-0.763h-3.022c-0.417,1.729,0.811,3.219,3.352,3.219c2.645,0,4.821-1.094,5.443-3.318
			c1.002-3.492-4.787-2.609-4.374-4.047c0.085-0.346,0.45-0.552,1.159-0.552c0.294,0,0.569,0.054,0.761,0.173
			c0.189,0.119,0.312,0.328,0.258,0.656H133.623z"/>
		<path fill="#222222" d="M121.801,42.461l-0.708-9.607h-3.217l-0.205,0.311l-5.791,9.004v0.293h2.903l0.727-1.265h3.144v1.265
			H121.801z M116.686,39.195l0.987-1.764l0.967-1.695l0.032,3.459H116.686z"/>
	</g>
</g>
</svg>
