<?xml version="1.0" encoding="utf-8"?>
<!-- Generator: Adobe Illustrator 16.0.0, SVG Export Plug-In . SVG Version: 6.00 Build 0)  -->
<!DOCTYPE svg PUBLIC "-//W3C//DTD SVG 1.1//EN" "http://www.w3.org/Graphics/SVG/1.1/DTD/svg11.dtd">
<svg version="1.1" id="Capa_1" xmlns="http://www.w3.org/2000/svg" xmlns:xlink="http://www.w3.org/1999/xlink" x="0px" y="0px"
	 width="134px" height="62px" viewBox="0 0 134 62" enable-background="new 0 0 134 62" xml:space="preserve">
<g>
	
		<radialGradient id="SVGID_1_" cx="41.6343" cy="7.9619" r="70.6579" gradientTransform="matrix(-0.8303 0.5574 -0.4031 -0.6005 79.4114 -10.4626)" gradientUnits="userSpaceOnUse">
		<stop  offset="0.3086" style="stop-color:#DEDEDE"/>
		<stop  offset="0.392" style="stop-color:#9E9E9E"/>
		<stop  offset="0.522" style="stop-color:#3F3F3F"/>
		<stop  offset="0.5807" style="stop-color:#1A1A1A"/>
		<stop  offset="0.6089" style="stop-color:#202020"/>
		<stop  offset="0.8339" style="stop-color:#4D4D4D"/>
	</radialGradient>
	<path fill="url(#SVGID_1_)" d="M26.195,28.905c0-7.886,10.556-14.74,26.072-18.22c-20.612,2.611-35.636,10.697-35.636,20.267
		c0,11.683,22.389,21.154,50.005,21.154c12.356,0,23.664-1.896,32.392-5.039c-6.99,1.59-15.001,2.494-23.515,2.494
		C48.275,49.561,26.195,40.313,26.195,28.905z"/>
	<radialGradient id="SVGID_2_" cx="66.29" cy="-25.0078" r="80.2774" gradientUnits="userSpaceOnUse">
		<stop  offset="0" style="stop-color:#DEDEDE"/>
		<stop  offset="0.6091" style="stop-color:#DEDEDE"/>
		<stop  offset="0.6587" style="stop-color:#BFBFBF"/>
		<stop  offset="0.7675" style="stop-color:#717171"/>
		<stop  offset="0.8957" style="stop-color:#0D0D0D"/>
		<stop  offset="0.9081" style="stop-color:#131313"/>
		<stop  offset="0.9255" style="stop-color:#262626"/>
		<stop  offset="0.9459" style="stop-color:#444444"/>
		<stop  offset="0.9509" style="stop-color:#4D4D4D"/>
	</radialGradient>
	<path fill="url(#SVGID_2_)" d="M116.643,30.951c0-11.684-22.389-21.154-50.006-21.154c-4.995,0-9.818,0.31-14.37,0.887
		c-15.517,3.48-26.072,10.334-26.072,18.22c0,11.408,22.08,20.656,49.319,20.656c8.514,0,16.524-0.904,23.515-2.494
		C109.804,43.186,116.643,37.406,116.643,30.951z"/>
	<ellipse fill="#212121" cx="66.598" cy="30.921" rx="42.057" ry="17.819"/>
	
		<radialGradient id="eyebrow_shadow_right_1_" cx="92.355" cy="23.8818" r="12.8737" fx="92.3483" fy="23.8818" gradientTransform="matrix(-0.0169 -0.9999 1.6456 -0.0279 54.6191 116.8892)" gradientUnits="userSpaceOnUse">
		<stop  offset="0" style="stop-color:#000000;stop-opacity:0.2"/>
		<stop  offset="1" style="stop-color:#000000;stop-opacity:0"/>
	</radialGradient>
	<ellipse id="eyebrow_shadow_right_2_" fill="url(#eyebrow_shadow_right_1_)" cx="66.876" cy="31.037" rx="41.059" ry="16.947"/>
	
		<radialGradient id="lower_left_rim_shadow_1_" cx="610.8413" cy="-1162.1768" r="22.9732" fx="606.8405" fy="-1149.6292" gradientTransform="matrix(0.0031 1 2.5435 -0.0079 3032.4238 -593.4584)" gradientUnits="userSpaceOnUse">
		<stop  offset="0.9571" style="stop-color:#12110B;stop-opacity:0"/>
		<stop  offset="0.99" style="stop-color:#12110B;stop-opacity:0.23"/>
	</radialGradient>
	<path id="lower_left_rim_shadow" fill="url(#lower_left_rim_shadow_1_)" d="M76.28,46.061c6.673,0,12.512-0.859,17.513-2.248
		c-7.214,2.597-16.649,4.171-26.975,4.171c-22.676,0-41.059-7.587-41.059-16.947c0-1.165,0.285-2.302,0.827-3.4
		C26.986,40.58,54.144,46.061,76.28,46.061z"/>
	
		<radialGradient id="bottom_right_glow_1_" cx="89.1479" cy="50.4941" r="22.2986" gradientTransform="matrix(-9.633738e-004 -1 2.0465 -0.002 -14.1024 139.7416)" gradientUnits="userSpaceOnUse">
		<stop  offset="0" style="stop-color:#B891C1;stop-opacity:0.4"/>
		<stop  offset="1" style="stop-color:#B891C1;stop-opacity:0"/>
	</radialGradient>
	<ellipse id="bottom_right_glow_2_" fill="url(#bottom_right_glow_1_)" cx="66.876" cy="31.037" rx="41.059" ry="16.947"/>
	
		<radialGradient id="lower_right_rim_light_1_" cx="70.4624" cy="-1165.228" r="19.7827" fx="67.0172" fy="-1154.423" gradientTransform="matrix(-0.0031 1 -2.5435 -0.0079 -2904.3538 -50.055)" gradientUnits="userSpaceOnUse">
		<stop  offset="0.9702" style="stop-color:#FDF5F9;stop-opacity:0"/>
		<stop  offset="0.99" style="stop-color:#FDF5F9;stop-opacity:0.5"/>
	</radialGradient>
	<path id="lower_right_rim_light" fill="url(#lower_right_rim_light_1_)" d="M57.356,46.061c-6.673,0-12.513-0.859-17.514-2.248
		c7.215,2.597,16.649,4.171,26.976,4.171c22.677,0,41.059-7.587,41.059-16.947c0-1.165-0.286-2.302-0.827-3.4
		C106.65,40.58,79.492,46.061,57.356,46.061z"/>
	<ellipse id="top_left_glow_circle_2_" fill="#212121" cx="66.876" cy="31.037" rx="41.059" ry="16.947"/>
	
		<radialGradient id="top_left_rim_eyebrow_1_" cx="72.0913" cy="33.6133" r="19.9842" fx="65.8307" fy="36.044" gradientTransform="matrix(0.0031 -1 2.514 0.0078 -12.6353 105.4418)" gradientUnits="userSpaceOnUse">
		<stop  offset="0.8847" style="stop-color:#FFFFFF;stop-opacity:0"/>
		<stop  offset="1" style="stop-color:#FFFFFF;stop-opacity:0.7"/>
	</radialGradient>
	<path id="top_left_rim_eyebrow" fill="url(#top_left_rim_eyebrow_1_)" d="M76.396,16.013c6.673,0,12.513,0.859,17.515,2.248
		c-7.215-2.597-16.65-4.171-26.977-4.171c-22.676,0-41.058,7.588-41.058,16.947c0,1.165,0.285,2.301,0.828,3.401
		C27.102,21.493,54.261,16.013,76.396,16.013z"/>
	<path opacity="0.4" d="M35.293,26.57c1.244,0,2.427,0.346,3.55,1.06l-0.959,2.396c-0.781-0.593-1.531-0.888-2.265-0.888
		c-1.693,0-2.796,1.161-2.796,2.425c0,1.325,0.897,2.202,2.123,2.202c0.836,0,1.57-0.266,2.406-0.775l0.491,2.541
		c-1.184,0.57-2.245,0.876-3.346,0.876c-2.817,0-4.735-1.849-4.735-4.497C29.763,28.936,32.07,26.57,35.293,26.57z M74.522,29.139
		c0.732,0,1.483,0.295,2.264,0.888l0.958-2.396c-1.122-0.714-2.306-1.06-3.55-1.06c-3.224,0-5.529,2.365-5.529,5.34
		c0,2.648,1.918,4.497,4.734,4.497c1.101,0,2.162-0.306,3.346-0.876l-0.49-2.541c-0.836,0.51-1.571,0.775-2.406,0.775
		c-1.225,0-2.123-0.877-2.123-2.202C71.725,30.3,72.827,29.139,74.522,29.139z M49.174,26.999l-1.571,8.96h-3.122l0.163-0.935
		c-0.918,0.854-1.755,1.28-2.693,1.28c-1.816,0-3.101-1.503-3.101-3.926c0-3.3,1.917-5.707,4.427-5.707
		c1.02,0,1.795,0.387,2.631,1.244l0.143-0.917H49.174z M45.563,29.811c-0.326-0.652-0.774-0.957-1.387-0.957
		c-1.204,0-2.285,1.384-2.285,3.443c0,1.041,0.55,1.712,1.388,1.712c0.938,0,1.692-0.814,1.979-2.384L45.563,29.811z M55.653,26.733
		c-1,0-1.815,0.672-2.551,2.018l0.306-1.752h-2.835l-1.592,8.96h3.163l0.591-3.457c0.307-1.753,0.918-2.61,2.225-2.61
		c0.285,0,0.612,0.042,1.019,0.143l0.572-3.159C56.225,26.775,55.918,26.733,55.653,26.733z M61.069,28.588
		c0.652,0,1.531,0.306,2.55,0.938l0.837-1.813c-1.185-0.754-2.347-1.121-3.612-1.121c-2.224,0-3.652,1.284-3.652,2.893
		c0,1.203,0.694,2.141,2.061,2.793l0.592,0.285c0.755,0.347,1.163,0.57,1.163,1.039c0,0.407-0.408,0.774-1.082,0.774
		c-0.755,0-1.733-0.326-2.938-1.019l-0.817,1.911c1.184,0.731,2.469,1.099,3.836,1.099c2.367,0,3.815-1.281,3.815-2.99
		c0-1.141-0.714-2.139-1.938-2.669l-0.551-0.225c-0.918-0.387-1.368-0.632-1.368-1.122C59.966,28.936,60.375,28.588,61.069,28.588z
		 M66.363,32.828c-0.918,0-1.694,0.754-1.694,1.69c0,0.891,0.776,1.685,1.694,1.685c0.961,0,1.701-0.773,1.701-1.685
		C68.064,33.561,67.325,32.828,66.363,32.828z M87.725,31.013c0,3.018-2.326,5.354-5.264,5.354c-2.857,0-4.734-1.829-4.734-4.477
		c0-2.955,2.307-5.32,5.387-5.32C85.829,26.57,87.725,28.385,87.725,31.013z M84.522,31.055c0-1.305-0.652-2.119-1.551-2.119
		c-1.041,0-2.041,1.243-2.041,2.955c0,1.304,0.693,2.141,1.593,2.141C83.583,34.031,84.522,32.787,84.522,31.055z M100.797,26.733
		c-1.183,0-2.21,0.612-3.159,1.876c-0.291-1.184-1.183-1.876-2.442-1.876c-1.087,0-2.056,0.55-2.928,1.61l0.213-1.345h-2.926
		l-1.513,8.96h2.966l0.757-4.396c0.271-1.609,1.22-2.343,2.035-2.343c0.503,0,0.813,0.346,0.813,0.876
		c0,0.203-0.038,0.467-0.098,0.774l-0.852,5.088h2.965l0.756-4.396c0.271-1.609,1.221-2.343,2.035-2.343
		c0.503,0,0.796,0.346,0.796,0.876c0,0.203-0.021,0.467-0.079,0.774l-0.852,5.088h2.945l1.028-6.005
		c0.038-0.225,0.058-0.429,0.058-0.633C103.317,27.773,102.328,26.733,100.797,26.733z"/>
	<linearGradient id="SVGID_3_" gradientUnits="userSpaceOnUse" x1="66.1338" y1="26.0483" x2="66.1338" y2="35.8853">
		<stop  offset="0.6107" style="stop-color:#FFFFFF"/>
		<stop  offset="0.791" style="stop-color:#EBEBEB"/>
	</linearGradient>
	<path fill="url(#SVGID_3_)" d="M34.887,26.048c1.245,0,2.428,0.347,3.55,1.061l-0.958,2.396c-0.782-0.593-1.532-0.889-2.265-0.889
		c-1.694,0-2.795,1.162-2.795,2.424c0,1.326,0.897,2.201,2.123,2.201c0.836,0,1.57-0.264,2.407-0.773l0.491,2.539
		c-1.184,0.572-2.245,0.877-3.347,0.877c-2.816,0-4.733-1.848-4.733-4.496C29.358,28.413,31.664,26.048,34.887,26.048z
		 M74.116,28.617c0.732,0,1.482,0.296,2.264,0.889l0.959-2.396c-1.123-0.714-2.307-1.061-3.55-1.061c-3.225,0-5.53,2.365-5.53,5.34
		c0,2.648,1.919,4.496,4.734,4.496c1.102,0,2.162-0.305,3.347-0.877l-0.491-2.539c-0.835,0.51-1.57,0.773-2.407,0.773
		c-1.224,0-2.122-0.875-2.122-2.201C71.319,29.778,72.42,28.617,74.116,28.617z M48.768,26.477l-1.571,8.961h-3.121l0.162-0.935
		c-0.917,0.853-1.754,1.28-2.692,1.28c-1.817,0-3.102-1.504-3.102-3.927c0-3.301,1.917-5.706,4.428-5.706
		c1.02,0,1.795,0.387,2.632,1.243l0.142-0.917H48.768z M45.157,29.289c-0.327-0.652-0.774-0.958-1.388-0.958
		c-1.203,0-2.284,1.386-2.284,3.445c0,1.039,0.55,1.71,1.387,1.71c0.938,0,1.693-0.814,1.979-2.383L45.157,29.289z M55.247,26.211
		c-1,0-1.815,0.671-2.55,2.018l0.306-1.752h-2.836l-1.591,8.961h3.162l0.592-3.458c0.306-1.754,0.918-2.609,2.224-2.609
		c0.287,0,0.613,0.041,1.02,0.143l0.572-3.159C55.819,26.252,55.512,26.211,55.247,26.211z M60.663,28.066
		c0.652,0,1.531,0.305,2.551,0.938l0.837-1.813c-1.185-0.755-2.348-1.122-3.612-1.122c-2.224,0-3.652,1.284-3.652,2.894
		c0,1.202,0.694,2.14,2.061,2.792l0.592,0.286c0.754,0.346,1.162,0.571,1.162,1.04c0,0.406-0.408,0.775-1.081,0.775
		c-0.755,0-1.734-0.328-2.938-1.02l-0.816,1.91c1.183,0.732,2.469,1.098,3.836,1.098c2.366,0,3.815-1.281,3.815-2.988
		c0-1.141-0.714-2.14-1.939-2.67l-0.551-0.224c-0.917-0.387-1.367-0.632-1.367-1.122C59.561,28.413,59.969,28.066,60.663,28.066z
		 M65.958,32.307c-0.919,0-1.694,0.753-1.694,1.69c0,0.89,0.775,1.686,1.694,1.686c0.961,0,1.7-0.776,1.7-1.686
		C67.658,33.038,66.918,32.307,65.958,32.307z M87.319,30.491c0,3.018-2.326,5.353-5.265,5.353c-2.856,0-4.732-1.827-4.732-4.477
		c0-2.954,2.306-5.319,5.386-5.319C85.422,26.048,87.319,27.862,87.319,30.491z M84.116,30.532c0-1.305-0.653-2.119-1.551-2.119
		c-1.04,0-2.04,1.242-2.04,2.954c0,1.305,0.693,2.142,1.591,2.142C83.176,33.509,84.116,32.264,84.116,30.532z M100.391,26.211
		c-1.184,0-2.209,0.612-3.158,1.876c-0.293-1.183-1.184-1.876-2.443-1.876c-1.086,0-2.055,0.551-2.928,1.61l0.214-1.345h-2.928
		l-1.511,8.961h2.965l0.758-4.396c0.271-1.609,1.22-2.343,2.034-2.343c0.504,0,0.813,0.347,0.813,0.876
		c0,0.204-0.037,0.469-0.098,0.774l-0.851,5.089h2.964l0.757-4.396c0.271-1.609,1.221-2.343,2.035-2.343
		c0.503,0,0.794,0.347,0.794,0.876c0,0.204-0.02,0.469-0.078,0.774l-0.852,5.089h2.945l1.029-6.006
		c0.037-0.224,0.057-0.428,0.057-0.632C102.911,27.251,101.922,26.211,100.391,26.211z"/>
	<g>
		<path fill="#12110B" d="M108.555,45.709h-0.604v-0.244h1.486v0.244h-0.604v1.697h-0.279V45.709z"/>
		<path fill="#12110B" d="M109.719,45.465h0.459l0.61,1.613l0.599-1.613h0.459v1.941h-0.279v-1.68h-0.005l-0.643,1.68h-0.272
			l-0.644-1.68h-0.005v1.68h-0.279V45.465z"/>
	</g>
	<path id="inner_ring-gradient" fill="#212121" d="M66.599,50.307c25.246,0,45.712-8.678,45.712-19.385
		c0-10.706-20.467-19.384-45.712-19.384c-25.247,0-45.712,8.679-45.712,19.384C20.886,41.629,41.352,50.307,66.599,50.307z
		 M109.526,30.921c0,9.938-19.219,17.994-42.927,17.994c-23.709,0-42.928-8.056-42.928-17.994c0-9.937,19.219-17.993,42.928-17.993
		C90.307,12.929,109.526,20.984,109.526,30.921z"/>
	
		<radialGradient id="outer_ring-rim_shadow_1_" cx="67.4497" cy="30.5645" r="54.5435" fx="64.9101" fy="25.3508" gradientTransform="matrix(0.9999 -0.0167 0.0066 0.396 -0.1925 19.5862)" gradientUnits="userSpaceOnUse">
		<stop  offset="0.8978" style="stop-color:#4D4D4D;stop-opacity:0"/>
		<stop  offset="1" style="stop-color:#4D4D4D"/>
	</radialGradient>
	<path id="outer_ring-rim_shadow" fill="url(#outer_ring-rim_shadow_1_)" d="M116.643,30.951c0,11.683-22.389,21.154-50.006,21.154
		c-27.617,0-50.005-9.472-50.005-21.154c0-11.684,22.389-21.154,50.005-21.154C94.254,9.797,116.643,19.268,116.643,30.951z
		 M20.132,30.854c0,11.021,20.856,19.957,46.583,19.957c25.728,0,46.581-8.936,46.581-19.957c0-11.021-20.854-19.955-46.581-19.955
		C40.988,10.899,20.132,19.833,20.132,30.854z"/>
	<path id="outer_ring-rim_highlight" fill="#212121" d="M116.643,30.951c0,11.683-22.389,21.154-50.006,21.154
		c-27.617,0-50.005-9.472-50.005-21.154c0-11.684,22.389-21.154,50.005-21.154C94.254,9.797,116.643,19.268,116.643,30.951z
		 M20.132,30.854c0,11.021,20.856,19.957,46.583,19.957c25.728,0,46.581-8.936,46.581-19.957c0-11.021-20.854-19.955-46.581-19.955
		C40.988,10.899,20.132,19.833,20.132,30.854z"/>
	<path fill="#CCCCCC" d="M109.642,30.921c0,10.002-19.271,18.11-43.043,18.11c-23.772,0-43.044-8.107-43.044-18.11
		c0-10,19.272-18.108,43.044-18.108C90.372,12.813,109.642,20.921,109.642,30.921z M66.599,13.219
		c-23.164,0-41.942,7.926-41.942,17.702c0,9.778,18.778,17.704,41.942,17.704c23.164,0,41.942-7.926,41.942-17.704
		C108.541,21.145,89.762,13.219,66.599,13.219z"/>
	<path fill="#FFFFFF" d="M66.714,10.899c25.728,0,46.581,8.934,46.581,19.955c0,11.021-20.854,19.957-46.581,19.957
		c-25.727,0-46.583-8.936-46.583-19.957C20.132,19.833,40.988,10.899,66.714,10.899z M66.599,50.191
		c25.182,0,45.595-8.627,45.595-19.27c0-10.642-20.413-19.268-45.595-19.268S21.003,20.28,21.003,30.921
		C21.003,41.564,41.417,50.191,66.599,50.191z"/>
</g>
</svg>
