<?xml version="1.0" encoding="utf-8"?>
<!-- Generator: Adobe Illustrator 16.0.0, SVG Export Plug-In . SVG Version: 6.00 Build 0)  -->
<svg version="1.2" baseProfile="tiny" id="Capa_1" xmlns="http://www.w3.org/2000/svg" xmlns:xlink="http://www.w3.org/1999/xlink"
	 x="0px" y="0px" width="134px" height="62px" viewBox="0 0 134 62" xml:space="preserve">
<rect fill="none" width="134" height="62"/>
<g>
	<path fill-rule="evenodd" fill="#222222" d="M21.165,47.178c-2.18-1.568-3.332-2.725-4.424-4.389
		c-1.568-2.438-2.434-5.383-2.434-8.303c0-8.428,6.793-15.256,15.225-15.256c8.397,0,15.226,6.828,15.226,15.225
		c0,3.459-1.188,6.924-3.271,9.488c-0.865,1.09-1.602,1.729-3.59,3.234v-8.91h1.506v6.094c1.123-1.318,1.67-2.119,2.213-3.082
		c1.121-1.982,1.729-4.455,1.729-6.824c0-7.691-6.184-13.941-13.812-13.941c-7.662,0-13.814,6.25-13.814,14.037
		c0,3.557,1.25,6.701,3.91,9.811v-6.094h1.537V47.178L21.165,47.178z M24.178,48.717c-0.287-0.063-0.961-0.383-1.506-0.674v-9.775
		h1.506V48.717L24.178,48.717z M27.223,49.518c-0.545-0.094-0.578-0.094-0.77-0.156c-0.162-0.035-0.225-0.035-0.738-0.162V28.365
		h1.508V49.518L27.223,49.518z M30.267,49.645c-0.226,0.035-0.288,0.035-0.608,0.035c-0.48,0-0.641,0-0.898-0.035V28.365h1.507
		V49.645L30.267,49.645z M33.313,49.164c-0.48,0.162-0.898,0.26-1.507,0.389V28.365h1.507V49.164L33.313,49.164z M33.347,27.242
		l-3.815-2.947l-3.816,2.947l-0.834-1.09l4.65-3.621l4.647,3.621L33.347,27.242L33.347,27.242z M36.388,48.043
		c-0.477,0.227-0.768,0.355-1.537,0.707V38.268h1.537V48.043L36.388,48.043z"/>
	<path fill-rule="evenodd" fill="#222222" d="M53.185,25.641v-4.072c0.45-0.16,0.674-0.193,0.997-0.193
		c1.154,0,1.826,0.773,1.826,2.055c0,1.506-0.641,2.211-2.021,2.211H53.185L53.185,25.641z M52.449,20.77h-1.955v0.67l1.092,0.191
		v9.33l-1.092,0.191v0.645h1.859c0.32,0,0.736,0,1.281,0.029h0.992c1.058,0,1.637-0.064,2.117-0.256
		c1.057-0.418,1.729-1.443,1.729-2.66c0-1.57-0.895-2.629-2.564-2.98c1.314-0.643,1.926-1.443,1.926-2.563
		c0-1.635-1.221-2.695-3.043-2.695c-0.133,0-0.516,0.031-0.996,0.064L52.449,20.77L52.449,20.77z M53.185,26.408h0.706
		c1.859,0,2.723,0.74,2.723,2.311c0,1.506-0.928,2.434-2.432,2.434c-0.449,0-0.674-0.064-0.997-0.256V26.408L53.185,26.408z
		 M62.927,23.781c-1.922,0-3.236,1.732-3.236,4.232c0,2.338,1.25,3.941,3.078,3.941c1.922,0,3.237-1.697,3.237-4.232
		C66.005,25.352,64.755,23.781,62.927,23.781L62.927,23.781z M62.865,24.551c0.898,0,1.412,1.059,1.412,2.98
		c0,2.402-0.514,3.621-1.477,3.621c-0.896,0-1.41-1.15-1.41-3.203C61.39,25.801,61.937,24.551,62.865,24.551L62.865,24.551z
		 M72.865,27.754c-0.031-2.658-0.896-3.939-2.691-3.939c-1.86,0-2.98,1.6-2.98,4.262c0,2.502,1.09,3.879,3.012,3.879
		c1.25,0,1.828-0.414,2.629-1.857l-0.705-0.293c-0.48,0.738-0.896,1.027-1.475,1.027c-1.154,0-1.697-0.898-1.859-3.078H72.865
		L72.865,27.754z M68.794,26.986c0.193-1.664,0.576-2.402,1.316-2.402c0.736,0,1.055,0.674,1.121,2.402H68.794L68.794,26.986z
		 M54.212,48.172V47.5l-0.932-0.191v-9.33l0.963-0.191v-0.674h-3.686v0.707l1.027,0.158v9.357l-1.027,0.197v0.639H54.212
		L54.212,48.172z M62.546,48.172V47.5l-0.834-0.191v-4.967c0-1.318-0.676-2.088-1.891-2.088c-0.705,0-1.154,0.197-2.117,0.934
		v-0.963h-0.449l-1.988,0.51v0.645l0.932,0.127v5.83l-0.932,0.197v0.639h3.305V47.5l-0.836-0.191v-5.227
		c0.609-0.514,1.027-0.703,1.51-0.703c0.607,0,0.895,0.418,0.895,1.311v4.682l-0.832,0.162v0.639H62.546L62.546,48.172z
		 M70.046,41.314v-0.928l-1.314,0.031h-0.289c-0.129,0.033-0.258,0.033-0.289,0.033c-0.162,0-0.385-0.033-0.703-0.129
		c-0.58-0.135-0.705-0.16-1.027-0.16c-1.506,0-2.66,1.152-2.66,2.654c0,0.998,0.352,1.607,1.314,2.217
		c-1.027,0.639-1.445,1.148-1.445,1.73c0,0.443,0.258,0.736,0.9,0.99c-0.932,0.607-1.25,1.027-1.25,1.67
		c0,0.992,1.121,1.637,2.85,1.637c2.311,0,3.816-1.092,3.816-2.791c0-1.188-0.707-1.762-2.211-1.826l-1.924-0.1
		c-0.48-0.029-0.671-0.127-0.671-0.318s0.223-0.447,0.607-0.709c0.287,0.1,0.545,0.135,0.865,0.135c1.539,0,2.691-1.09,2.691-2.57
		c0-0.609-0.127-0.99-0.574-1.566H70.046L70.046,41.314z M66.488,40.834c0.768,0,1.154,0.672,1.154,2.082
		c0,1.184-0.355,1.797-1.092,1.797c-0.768,0-1.09-0.613-1.09-1.959C65.46,41.443,65.783,40.834,66.488,40.834L66.488,40.834z
		 M66.005,47.916c2.469,0.162,2.822,0.289,2.822,0.963c0,0.766-0.994,1.311-2.309,1.311c-1.058,0-1.699-0.41-1.699-1.119
		c0-0.482,0.162-0.801,0.576-1.182L66.005,47.916L66.005,47.916z"/>
	<path fill-rule="evenodd" fill="#222222" d="M72.513,43.363c0.193-1.695,0.609-2.402,1.348-2.402c0.736,0,1.059,0.736,1.09,2.402
		H72.513L72.513,43.363z M81.007,31.797v-0.674l-0.832-0.162v-4.838c0-1.447-0.643-2.182-1.893-2.182
		c-0.672,0-1.186,0.227-2.082,0.928v-4.836h-0.449l-1.988,0.416v0.545l0.896,0.189v9.777l-0.959,0.191v0.645h3.268v-0.674
		l-0.768-0.162v-5.16c0.641-0.543,0.992-0.705,1.473-0.705c0.674,0,0.931,0.418,0.931,1.572v4.326l-0.771,0.158v0.645H81.007
		L81.007,31.797z M84.501,23.879h-0.483l-1.921,0.512v0.514l0.928,0.16v5.896l-0.928,0.191v0.645h3.555v-0.674l-1.119-0.162v-4.197
		c0-0.451,0.451-1.059,0.992-1.35l0.836,0.453c0.416-0.32,0.609-0.609,0.609-0.963c0-0.578-0.354-0.93-0.932-0.93
		c-0.576,0-0.896,0.287-1.537,1.377V23.879L84.501,23.879z M89.275,20.033c-0.576,0-1.023,0.445-1.023,1.025
		c0,0.572,0.447,1.025,1.023,1.025c0.578,0,1.027-0.453,1.027-1.025C90.302,20.479,89.853,20.033,89.275,20.033L89.275,20.033z
		 M91.072,31.797v-0.674l-0.896-0.162v-7.02h-0.387l-2.018,0.512v0.545l0.864,0.193v5.77l-0.864,0.191v0.645H91.072L91.072,31.797z
		 M76.615,44.1c-0.063-1.057-0.096-1.566-0.223-1.982c-0.385-1.254-1.219-1.93-2.5-1.93c-1.859,0-2.982,1.572-2.982,4.236
		c0,2.465,1.092,3.91,3.014,3.91c1.25,0,1.924-0.48,2.66-1.863l-0.705-0.289c-0.48,0.742-0.899,1.025-1.506,1.025
		c-1.154,0-1.699-0.893-1.859-3.107H76.615L76.615,44.1z M80.88,48.172V47.5l-0.865-0.191V36.377h-0.418l-2.02,0.447v0.545
		l0.896,0.1v9.867l-0.928,0.197v0.639H80.88L80.88,48.172z M89.244,48.172V47.5l-0.863-0.191v-4.938c0-1.313-0.674-2.049-1.86-2.049
		c-0.736,0-1.25,0.221-2.115,0.93v-4.875h-0.418l-2.018,0.447v0.545l0.896,0.164v9.803l-0.93,0.197v0.639h3.236V47.5l-0.768-0.191
		V42.18c0.641-0.545,1.023-0.736,1.473-0.736c0.674,0,0.93,0.418,0.93,1.564v4.363l-0.77,0.162v0.639H89.244L89.244,48.172z
		 M95.976,44.1c-0.064-1.057-0.096-1.566-0.227-1.982c-0.383-1.254-1.215-1.93-2.498-1.93c-1.861,0-2.981,1.572-2.981,4.236
		c0,2.465,1.088,3.91,3.014,3.91c1.25,0,1.922-0.48,2.658-1.863l-0.705-0.289c-0.48,0.742-0.898,1.025-1.508,1.025
		c-1.15,0-1.695-0.893-1.859-3.107H95.976L95.976,44.1z M91.871,43.363c0.195-1.695,0.611-2.402,1.348-2.402
		c0.738,0,1.059,0.736,1.09,2.402H91.871L91.871,43.363z"/>
	<path fill-rule="evenodd" fill="#222222" d="M103.38,24.453c0.77,0,1.152,0.676,1.152,2.086c0,1.184-0.352,1.793-1.088,1.793
		c-0.77,0-1.09-0.609-1.09-1.953C102.354,25.064,102.675,24.453,103.38,24.453L103.38,24.453z M99.468,31.797v-0.674l-0.832-0.191
		v-4.971c0-1.313-0.674-2.082-1.893-2.082c-0.703,0-1.154,0.189-2.113,0.928v-0.961h-0.449l-1.988,0.514v0.639l0.93,0.131v5.832
		l-0.93,0.191v0.645h3.301v-0.674l-0.832-0.191v-5.227c0.609-0.514,1.027-0.707,1.506-0.707c0.609,0,0.9,0.416,0.9,1.314v4.682
		l-0.836,0.158v0.645H99.468L99.468,31.797z M106.937,24.936v-0.932l-1.314,0.035h-0.285c-0.129,0.029-0.26,0.029-0.291,0.029
		c-0.16,0-0.383-0.029-0.705-0.127c-0.578-0.127-0.705-0.16-1.025-0.16c-1.508,0-2.658,1.154-2.658,2.66
		c0,0.996,0.352,1.604,1.311,2.211c-1.023,0.643-1.441,1.152-1.441,1.699c0,0.449,0.258,0.771,0.898,1.025
		c-0.898,0.578-1.248,1.027-1.248,1.666c0,0.996,1.119,1.635,2.85,1.635c2.311,0,3.814-1.09,3.814-2.785
		c0-1.188-0.705-1.766-2.209-1.828l-1.926-0.096c-0.48-0.035-0.672-0.129-0.672-0.355c0-0.16,0.225-0.416,0.609-0.672
		c0.287,0.096,0.545,0.129,0.865,0.129c1.537,0,2.691-1.094,2.691-2.566c0-0.607-0.129-0.99-0.578-1.568H106.937L106.937,24.936z
		 M102.291,31.504c3.174,0.191,3.428,0.258,3.428,0.996c0,0.736-0.992,1.313-2.307,1.313c-1.057,0-1.697-0.414-1.697-1.121
		C101.714,32.215,101.873,31.893,102.291,31.504L102.291,31.504z M113.509,27.754c-0.033-2.658-0.898-3.939-2.695-3.939
		c-1.857,0-2.979,1.6-2.979,4.262c0,2.502,1.09,3.879,3.012,3.879c1.25,0,1.826-0.414,2.629-1.857l-0.703-0.293
		c-0.482,0.738-0.9,1.027-1.477,1.027c-1.154,0-1.697-0.898-1.859-3.078H113.509L113.509,27.754z M109.437,26.986
		c0.193-1.664,0.576-2.402,1.314-2.402c0.736,0,1.058,0.674,1.121,2.402H109.437L109.437,26.986z M117.228,23.879h-0.482
		l-1.922,0.512v0.514l0.928,0.16v5.896l-0.928,0.191v0.645h3.555v-0.674l-1.119-0.162v-4.197c0-0.451,0.447-1.059,0.992-1.35
		l0.836,0.453c0.414-0.32,0.605-0.609,0.605-0.963c0-0.578-0.352-0.93-0.928-0.93c-0.578,0-0.896,0.287-1.537,1.377V23.879
		L117.228,23.879z M98.794,36.377c-0.61,0-1.088,0.48-1.088,1.059s0.447,1.025,1.025,1.025c0.576,0,1.059-0.482,1.059-1.055
		C99.791,36.857,99.339,36.377,98.794,36.377L98.794,36.377z M100.527,48.172V47.5l-0.896-0.191v-6.986h-0.387l-2.018,0.512v0.51
		l0.865,0.191v5.801l-0.865,0.197v0.639H100.527h12.564V47.5l-0.896-0.191v-4.711c0-1.607-0.576-2.275-1.953-2.275
		c-0.838,0-1.383,0.285-2.215,1.057c-0.449-0.707-0.992-1.027-1.795-1.027c-0.768,0-1.377,0.256-2.178,0.928v-1.055h-0.418
		l-2.02,0.51v0.545l0.93,0.164v5.893l-0.93,0.197v0.639h3.27V47.5l-0.736-0.191v-5.164c0.545-0.539,0.928-0.736,1.441-0.736
		c0.705,0,1.027,0.453,1.027,1.443v4.484l-0.9,0.197v0.639h3.238V47.5l-0.801-0.191V42.18c0.641-0.574,0.994-0.771,1.508-0.771
		c0.67,0,0.961,0.416,0.961,1.473v4.455l-0.865,0.197v0.639h3.332H100.527L100.527,48.172z"/>
</g>
</svg>
