<?xml version="1.0" encoding="utf-8"?>
<!-- Generator: Adobe Illustrator 16.0.0, SVG Export Plug-In . SVG Version: 6.00 Build 0)  -->
<svg version="1.2" baseProfile="tiny" id="Capa_1" xmlns="http://www.w3.org/2000/svg" xmlns:xlink="http://www.w3.org/1999/xlink"
	 x="0px" y="0px" width="134px" height="62px" viewBox="0 0 134 62" xml:space="preserve">
<rect fill="none" width="134" height="62"/>
<g>
	<path fill-rule="evenodd" fill="#222222" d="M105.458,20.737c0.317-1.107,0.196-1.863-0.318-2.219
		c-0.395-0.313-1.107-0.313-2.098,0c-2.172,0.912-4.391,2.891-6.645,5.896c-3.084,4.35-5.379,8.625-6.881,12.814l-0.158,0.236
		c-0.398,0.199-0.91,0.279-1.387,0.199c-0.117-0.078-0.158-0.158-0.158-0.275l0.596-2.295c0.158-0.949,0.039-1.738-0.396-2.332
		c-0.314-0.479-0.791-0.676-1.385-0.676c-1.742,0.121-3.52,1.346-5.34,3.797c-1.818,2.611-2.809,5.105-3.004,7.357
		c0,1.426,0.436,2.373,1.344,2.768c1.027,0.277,2.174-0.078,3.441-1.148c1.345-1.264,2.65-3.199,3.957-5.73l0.236-0.277h1.422
		c0.119,0,0.199,0.078,0.199,0.197c-0.398,1.738-0.594,2.684-0.594,2.848c-0.199,1.148-0.119,2.098,0.12,2.924
		c0.275,0.793,0.75,1.188,1.421,1.229c1.149,0.121,2.456-0.754,3.956-2.527l0.119-0.082l0.08,0.156
		c0.078,1.264,0.434,2.057,1.07,2.334c0.629,0.199,1.264,0.078,1.936-0.238c0.396-0.236,0.949-0.635,1.66-1.303
		c0.08-0.039,0.16-0.039,0.199,0.041l0.238,0.748c0.078,0.316,0.236,0.553,0.434,0.715c0.516,0.277,1.148,0.197,2.017-0.201
		c1.938-1.025,3.68-3.125,5.182-6.25l0.117-0.512l-0.867,0.041l-1.307,2.055c-0.593,0.83-1.146,1.422-1.701,1.699
		c-0.238,0.08-0.357,0-0.396-0.117c-0.039-0.197,0.08-0.59,0.357-1.145l4.51-9.059c0.039-0.162,0.039-0.236,0-0.277l-2.73-0.041
		c-0.119,0-0.199,0.041-0.277,0.197l-0.236,0.238c-0.119,0.078-0.236,0.041-0.314-0.039l-0.318-0.199
		c-1.109-0.514-2.334-0.197-3.719,0.873c-1.148,0.988-2.371,2.49-3.561,4.43c-1.502,2.412-2.571,3.994-3.162,4.703
		c-0.516,0.516-0.909,0.713-1.227,0.555c-0.195-0.078-0.275-0.277-0.275-0.514c0.037-0.91,0.275-2.135,0.75-3.676l0.236-0.713
		c0.121-0.277,0.238-0.477,0.395-0.633l1.82-1.502c2.375-2.176,4.586-4.748,6.646-7.639l0.436-0.871h-0.082
		c-0.631,0.041-1.027,0.125-1.186,0.205c-2.094,2.883-3.996,5.139-5.732,6.682c-0.518,0.434-0.834,0.633-0.912,0.633
		c-0.041-0.037-0.08-0.08-0.08-0.158c0.199-0.555,0.752-1.701,1.584-3.48c2.098-4.074,4.154-7.279,6.09-9.535
		c0.91-1.063,1.699-1.697,2.297-1.977c0.273-0.037,0.473,0,0.551,0.08c0.041,0.041,0.041,0.236,0.041,0.592l-0.318,1.186
		c0,0.039,0,0.039,0.041,0.039C104.982,21.331,105.417,21.054,105.458,20.737L105.458,20.737z M98.019,40.71
		c1.186-2.926,2.455-4.984,3.719-6.25l0.633-0.555c0.277-0.156,0.514-0.195,0.791-0.078c0.117,0.078,0.158,0.277,0.08,0.633
		c-1.148,2.85-2.297,5.102-3.361,6.803c-0.676,0.91-1.189,1.463-1.543,1.662c-0.236,0.078-0.396,0.078-0.514-0.08
		c-0.159-0.156-0.2-0.475-0.159-1.025L98.019,40.71L98.019,40.71z M86.749,33.71c0.196,0.039,0.395,0.238,0.514,0.553
		c0.156,0.791-0.041,1.781-0.555,2.926c-0.117,0.16-0.236,0.16-0.472,0.041c-0.793-0.277-1.189-0.793-1.27-1.541
		c0.08-0.871,0.396-1.465,1.029-1.9C86.271,33.675,86.509,33.632,86.749,33.71L86.749,33.71z M83.662,37.03
		c0.041-0.037,0.156,0,0.277,0c0.555,0.715,1.189,1.229,1.898,1.547c0.158,0.078,0.158,0.236,0.041,0.473
		c-0.992,1.898-1.939,3.201-2.809,3.875c-0.357,0.158-0.633,0.158-0.83,0.121c-0.395-0.162-0.594-0.438-0.594-0.914
		c0-0.711,0.273-1.699,0.83-2.961C82.953,38.179,83.308,37.466,83.662,37.03L83.662,37.03z"/>
	<path fill-rule="evenodd" fill="#222222" d="M110.322,19.231c0.197-0.396,0.277-0.713,0.318-0.947
		c-3.088,3.047-6.055,4.625-8.861,4.666l-0.199,0.121l-2.178,3.084c-0.076,0.199-0.076,0.277,0,0.314l0.992,0.041
		c2.096-0.041,4.111-0.754,5.973-2.213C108.144,22.909,109.453,21.212,110.322,19.231L110.322,19.231z"/>
	<path fill-rule="evenodd" fill="#222222" d="M85.165,21.015c0.041-0.434,0.12-0.635,0.157-0.676
		c1.863-0.314,3.797,0.242,5.857,1.621l3.598,2.455c0.121,0.082,0.238,0.082,0.279,0l2.135-2.65c0.197-0.156,0.197-0.275,0-0.355
		c-2.135-1.344-3.521-2.178-4.113-2.496c-1.188-0.549-2.574-0.828-4.152-0.787c-1.467,0.08-2.848,0.393-4.154,0.908
		c-0.162,0.039-0.315,0-0.514-0.16c-0.633-0.549-1.504-0.748-2.691-0.59c-2.887,0.516-5.854,2.297-8.86,5.338
		c-2.333,2.334-4.39,5.381-6.208,9.182l-0.871,2.014c-1.348,3.918-1.506,6.916-0.516,8.979c0.674,1.461,1.779,2.213,3.361,2.375
		c3.086,0.236,5.855-1.543,8.35-5.461c1.5-2.646,2.136-4.863,1.898-6.725c-0.158-0.986-0.633-1.621-1.426-1.816
		c-1.504-0.357-3.006,0.354-4.51,2.094c-1.662,2.254-2.412,4.59-2.332,7l0.078,0.121c0.711-0.834,1.502-1.506,2.334-2.137
		l1.346-0.869c0.195-1.664,0.709-2.967,1.541-3.918c0.594-0.592,1.07-0.828,1.463-0.633c0.314,0.197,0.475,0.557,0.516,0.99
		l-0.121,1.227c-0.51,2.373-1.699,4.506-3.557,6.404c-1.742,1.467-3.205,1.902-4.352,1.311c-1.229-0.875-1.504-2.811-0.791-5.816
		c1.346-4.553,3.719-8.861,7.119-13.014c2.492-2.807,4.549-4.469,6.211-5.063l0.591,0.039c0.081,0.078,0.042,0.119-0.037,0.16
		c-1.662,1.266-2.93,2.688-3.801,4.232c-1.186,2.254-1.42,3.953-0.672,5.102c0.398,0.553,0.949,0.752,1.621,0.594
		c1.109-0.32,2.217-1.305,3.365-3.01C84.609,24.89,85.206,22.909,85.165,21.015L85.165,21.015z M83.503,21.45
		c0.08-0.119,0.236-0.16,0.398-0.16c0.037,0.082,0.078,0.434,0.078,1.105c-0.277,2.26-1.227,4.314-2.928,6.133
		c-0.67,0.516-1.227,0.715-1.582,0.633c-0.316-0.117-0.477-0.357-0.512-0.752c0.036-1.146,0.59-2.492,1.581-4.037
		C81.406,23.112,82.398,22.122,83.503,21.45L83.503,21.45z"/>
	<path fill-rule="evenodd" fill="#222222" d="M52.097,26.114c-0.234-0.475-0.672-0.752-1.227-0.832
		c-1.186-0.117-2.331,0.279-3.479,1.188c-0.355,0.318-1.268,1.227-2.689,2.811c-0.872,0.791-1.74,1.225-2.729,1.225
		c-0.041,0-0.078-0.041-0.16-0.16c0.715-2.213,0.596-3.793-0.275-4.666c-0.596-0.473-1.305-0.594-2.133-0.396
		c-2.219,0.674-4.275,2.77-6.172,6.252c-0.713,1.465-1.189,2.85-1.426,4.113c-0.156,1.623,0.197,2.77,1.107,3.402
		c0.95,0.592,2.096,0.434,3.362-0.473c1.504-1.188,3.129-3.324,4.785-6.449l0.199-0.236l1.621-0.162c0.08,0,0.121,0.082,0.121,0.199
		c-0.637,1.461-1.029,2.531-1.148,3.283c-0.236,1.346-0.041,2.412,0.635,3.283c0.631,0.676,1.422,0.947,2.371,0.869
		c1.619-0.314,3.361-1.422,5.26-3.246c0.078-0.074,0.16-0.074,0.197,0l-0.037,1.23c0,0.516,0.08,0.91,0.236,1.188
		c0.199,0.436,0.553,0.711,1.029,0.828c0.986,0.119,2.135-0.434,3.48-1.619c0.039-0.039,0.117,0,0.195,0.039
		c0.197,0.793,0.398,1.266,0.594,1.422c0.199,0.158,0.596,0.236,1.148,0.199c1.74-0.434,3.521-2.057,5.338-4.865
		c0.793-1.461,1.188-2.256,1.227-2.297l-0.791-0.115c-0.157,0-0.354,0.115-0.553,0.355c-0.277,0.557-0.633,1.191-1.068,1.82
		c-0.791,0.949-1.344,1.543-1.74,1.74c-0.199,0.074-0.316,0.039-0.354-0.078l0.037-0.357l5.02-10.205l-0.076-0.082l-2.65-0.074
		c-0.115,0-0.355,0.156-0.709,0.51c-0.08,0.041-0.197,0-0.279-0.078l-0.277-0.158c-0.986-0.514-2.135-0.314-3.439,0.555
		c-1.149,0.871-2.375,2.176-3.52,3.957c-1.662,2.49-2.652,3.953-3.008,4.352c-1.264,1.383-2.449,2.252-3.441,2.646
		c-0.473,0.119-0.869,0-1.146-0.395c-0.238-0.354-0.238-1.027-0.039-1.977c0.514-1.66,1.264-3.283,2.255-4.785
		c1.145-1.664,2.096-2.689,2.967-3.006c0.232,0,0.432,0.078,0.553,0.197c0.039,0.232,0,0.357-0.199,0.396l-0.514,0.154
		c-0.949,0.678-1.344,1.465-1.148,2.377c0.082,0.236,0.238,0.393,0.475,0.471c0.398,0.121,0.834-0.035,1.307-0.432
		C52.417,28.608,52.73,27.339,52.097,26.114L52.097,26.114z M59.537,27.339c0.158,0.123,0.197,0.199,0.236,0.277
		c-0.039,0.238-0.158,0.713-0.475,1.506c-1.188,2.607-2.455,4.826-3.717,6.645c-0.515,0.551-0.912,0.828-1.189,0.828l-0.355-0.277
		c-0.081-0.316,0-0.906,0.277-1.857l0.394-0.99c1.385-2.926,2.811-4.902,4.194-5.967C59.177,27.38,59.417,27.339,59.537,27.339
		L59.537,27.339z M36.751,31.413l0.635-1.027l0.273-0.234l0.08,0.041c0.634,0.666,1.309,1.184,2.098,1.498
		c0.037,0.08,0.037,0.238-0.08,0.438c-0.908,1.777-1.857,3.084-2.885,3.955c-0.357,0.199-0.674,0.313-0.912,0.234
		c-0.277-0.078-0.477-0.316-0.555-0.709C35.406,34.577,35.882,33.198,36.751,31.413L36.751,31.413z M39.915,26.946
		c0.237-0.119,0.477-0.119,0.754,0c0.432,0.352,0.592,0.986,0.393,1.939c-0.156,0.514-0.314,0.988-0.512,1.385
		c-0.039,0.074-0.199,0.074-0.514,0.035c-0.791-0.313-1.227-0.826-1.305-1.502C38.732,27.972,39.123,27.339,39.915,26.946
		L39.915,26.946z"/>
	<path fill-rule="evenodd" fill="#222222" d="M64.121,28.608c0.199,0,1.15,0,2.811,0c0.236,0,0.473-0.199,0.631-0.477l1.268-2.689
		l-0.082-0.08l-2.25-0.041c-0.516,0.041-0.792,0.121-0.915,0.279l-1.421,2.65C64.121,28.409,64.121,28.528,64.121,28.608
		L64.121,28.608z"/>
	<path fill-rule="evenodd" fill="#222222" d="M30.9,23.112c-1.939,1.934-3.602,4.186-4.985,6.762
		c-0.71,1.305-1.224,2.451-1.584,3.443c-0.751,1.895-1.066,3.797-0.947,5.732c0.117,2.254,0.789,4.033,2.096,5.301
		c1.344,1.543,3.721,2.135,7,1.82c0.947-0.121,3.365-0.715,7.199-1.74c2.928-0.793,5.418-1.07,7.477-0.834
		c1.898,0.357,3.283,1.264,4.191,2.689l0.158,0.041c2.332-1.111,5.814-1.07,10.402,0.199c0.08,0,0.08,0,0.08-0.078
		c-1.145-1.74-3.164-3.246-5.934-4.43c-3.521-1.387-7.596-1.469-12.223-0.121l-6.091,1.82c-1.619,0.434-2.887,0.713-3.676,0.789
		c-1.502,0.121-2.729-0.076-3.758-0.592c-1.939-1.07-2.809-2.967-2.609-5.736c0.314-2.609,1.342-5.537,3.121-8.82
		c2.295-3.797,4.629-6.645,7-8.541c1.148-0.793,2.02-1.15,2.574-1.07c0.195,0.041,0.355,0.158,0.514,0.396
		c0.078,0.236,0.037,0.357-0.041,0.438c-0.473,0.076-0.909,0.273-1.303,0.709c-0.359,0.354-0.596,0.752-0.674,1.227
		c-0.117,0.596-0.039,0.988,0.199,1.227c0.193,0.156,0.393,0.277,0.592,0.277c1.227-0.199,1.939-1.07,2.295-2.73
		c0.238-1.186,0-2.059-0.713-2.572c-0.674-0.512-1.816-0.592-3.402-0.158C35.447,19.312,33.15,20.854,30.9,23.112L30.9,23.112z"/>
</g>
</svg>
